<?xml version="1.0" encoding="UTF-8" standalone="no"?>
<svg width="128px" height="128px" viewBox="0 0 128 128" version="1.1" xmlns="http://www.w3.org/2000/svg" xmlns:xlink="http://www.w3.org/1999/xlink" xmlns:sketch="http://www.bohemiancoding.com/sketch/ns">
    <!-- Generator: Sketch 3.4 (15588) - http://www.bohemiancoding.com/sketch -->
    <title>Artboard 1</title>
    <desc>Created with Sketch.</desc>
    <defs>
        <linearGradient x1="50.0263566%" y1="100.416431%" x2="50.0263566%" y2="-0.0100905645%" id="linearGradient-1">
            <stop stop-color="#003B5C" stop-opacity="0.5" offset="0%"></stop>
            <stop stop-color="#003B5C" stop-opacity="0.5448" offset="8.962709%"></stop>
            <stop stop-color="#003B5C" offset="100%"></stop>
        </linearGradient>
        <linearGradient x1="50%" y1="136.103993%" x2="50%" y2="-0.0121597096%" id="linearGradient-2">
            <stop stop-color="#003B5C" stop-opacity="0.25" offset="0%"></stop>
            <stop stop-color="#003B5C" stop-opacity="0.3172" offset="8.962709%"></stop>
            <stop stop-color="#003B5C" offset="100%"></stop>
        </linearGradient>
    </defs>
    <g id="Page-1" stroke="none" stroke-width="1" fill="none" fill-rule="evenodd" sketch:type="MSPage">
        <g id="Artboard-1" sketch:type="MSArtboardGroup">
            <g id="Logo" sketch:type="MSLayerGroup" transform="translate(13.000000, 27.000000)">
                <path d="M78.1,5.3 C75.3,4.1 72.1,5.5 70.9,8.3 L51.5,55.2 L32.1,8.3 C30.9,5.5 27.7,4.2 24.9,5.3 C22.1,6.5 20.8,9.7 21.9,12.5 L46.4,71.6 L46.4,71.6 C46.5,71.8 46.5,71.9 46.6,72 C46.6,72.1 46.7,72.1 46.7,72.2 C46.7,72.3 46.8,72.4 46.8,72.4 C46.9,72.5 46.9,72.6 47,72.6 C47.1,72.7 47.1,72.7 47.2,72.8 C47.3,72.9 47.3,72.9 47.4,73 C47.5,73.1 47.5,73.1 47.6,73.2 C47.7,73.3 47.7,73.3 47.8,73.4 L48,73.6 C48.1,73.7 48.1,73.7 48.2,73.7 C48.3,73.8 48.4,73.8 48.4,73.9 C48.5,74 48.6,74 48.6,74 C48.7,74 48.7,74.1 48.8,74.1 C49,74.2 49.1,74.3 49.3,74.3 L49.3,74.3 L49.3,74.3 C49.5,74.4 49.6,74.4 49.8,74.5 C49.9,74.5 50,74.5 50,74.6 C50.1,74.6 50.2,74.6 50.3,74.7 L50.6,74.7 L50.9,74.7 L51.2,74.7 L51.5,74.7 L51.8,74.7 L52.1,74.7 L52.4,74.7 L52.7,74.7 C52.8,74.7 52.9,74.7 53,74.6 C53.1,74.6 53.2,74.6 53.2,74.5 C53.4,74.4 53.5,74.4 53.7,74.3 L53.7,74.3 L53.7,74.3 C53.9,74.2 54,74.2 54.2,74.1 C54.3,74.1 54.3,74 54.4,74 C54.5,74 54.6,73.9 54.6,73.9 C54.7,73.8 54.8,73.8 54.8,73.7 C54.9,73.6 54.9,73.6 55,73.5 C55.1,73.4 55.1,73.4 55.2,73.3 C55.3,73.2 55.3,73.2 55.4,73.1 L55.6,72.9 C55.7,72.8 55.7,72.8 55.8,72.7 C55.9,72.6 55.9,72.6 55.9,72.5 C56,72.4 56,72.3 56.1,72.3 C56.2,72.2 56.2,72.1 56.2,72.1 C56.2,72 56.3,72 56.3,71.9 C56.4,71.8 56.4,71.6 56.5,71.5 L56.5,71.5 L81,12.4 C82.2,9.7 80.9,6.4 78.1,5.3 L78.1,5.3 L78.1,5.3 Z" id="Shape" fill="url(#linearGradient-1)" sketch:type="MSShapeGroup"></path>
                <path d="M57,41.8 L57,5.5 C57,2.5 54.5,0 51.5,0 C48.5,0 46,2.5 46,5.5 L46,41.8 L51.5,55.1 L57,41.8 L57,41.8 L57,41.8 Z" id="Shape" fill="url(#linearGradient-2)" sketch:type="MSShapeGroup"></path>
                <path d="M100.6,20.3 C98.5,18.2 95,18.2 92.8,20.3 L51.4,61.7 L10.1,20.3 C8,18.2 4.5,18.2 2.3,20.3 C0.2,22.4 0.2,25.9 2.3,28.1 L47.6,73.4 C48.4,74.2 49.3,74.6 50.3,74.9 L50.4,74.9 C50.6,74.9 50.8,74.9 51,75 L51.4,75 L51.8,75 C53.1,74.9 54.3,74.4 55.3,73.4 L100.6,28.1 C102.8,26 102.8,22.5 100.6,20.3 L100.6,20.3 L100.6,20.3 Z" id="Shape" fill="#003B5C" sketch:type="MSShapeGroup"></path>
            </g>
        </g>
    </g>
</svg>