<?xml version="1.0" encoding="utf-8"?>
<!-- Generator: Adobe Illustrator 19.1.0, SVG Export Plug-In . SVG Version: 6.00 Build 0)  -->
<!DOCTYPE svg PUBLIC "-//W3C//DTD SVG 1.0//EN" "http://www.w3.org/TR/2001/REC-SVG-20010904/DTD/svg10.dtd">
<svg version="1.0" id="Logo_1_" xmlns="http://www.w3.org/2000/svg" xmlns:xlink="http://www.w3.org/1999/xlink" x="0px" y="0px"
	 viewBox="0 0 480 216" enable-background="new 0 0 480 216" xml:space="preserve">
<g id="Catalog">
	<g>
		<path fill="#FFFFFF" d="M178.7,106.3c0-14.8,11.1-23.7,22.8-23.7c11.5,0,18.4,6.8,20.4,14.7l-7.2,2.4c-1.3-5.5-5.6-9.9-13.2-9.9
			c-7.5,0-15,5.4-15,16.4c0,10.6,7.3,16.3,15,16.3c7.6,0,12-4.9,13.5-10l7,2.3c-2,7.7-9,15-20.5,15
			C189.3,130,178.7,121.1,178.7,106.3z"/>
		<path fill="#FFFFFF" d="M240.6,129.8c-9.2,0-15-7.2-15-16.6c0-9,6-16.3,14.9-16.3c5.5,0,8.3,2.9,9.2,5v-4.1h7.2v25.5
			c0,2.6,0.3,5.1,0.3,5.7h-7.1c-0.1-0.7-0.3-2.4-0.3-4.5C248.3,127.5,245.1,129.8,240.6,129.8z M241.4,123.4c4.9,0,8.3-4.2,8.3-10.2
			s-3.3-9.9-8.3-9.9c-5,0-8.4,3.8-8.4,9.9C233,119.2,236.2,123.4,241.4,123.4z"/>
		<path fill="#FFFFFF" d="M273.7,97.8h6.5v6.6h-6.5v14.5c0,2.8,1.2,3.9,4,3.9c1,0,2.2-0.2,2.6-0.3v6.1c-0.4,0.2-1.9,0.7-4.5,0.7
			c-5.8,0-9.3-3.5-9.3-9.3v-15.7h-5.8v-6.6h1.6c3.3,0,4.8-2.1,4.8-4.9v-4.7h6.7V97.8z"/>
		<path fill="#FFFFFF" d="M297.6,129.8c-9.2,0-15-7.2-15-16.6c0-9,6-16.3,14.9-16.3c5.5,0,8.3,2.9,9.2,5v-4.1h7.2v25.5
			c0,2.6,0.3,5.1,0.3,5.7h-7.1c-0.1-0.7-0.3-2.4-0.3-4.5C305.4,127.5,302.1,129.8,297.6,129.8z M298.5,123.4c4.9,0,8.3-4.2,8.3-10.2
			s-3.3-9.9-8.3-9.9c-5,0-8.4,3.8-8.4,9.9C290,119.2,293.3,123.4,298.5,123.4z"/>
		<path fill="#FFFFFF" d="M321.2,129V82.7h7.4V129H321.2z"/>
		<path fill="#FFFFFF" d="M366.1,113.4c0,9.6-6.8,16.6-16.2,16.6c-9.3,0-16.1-7-16.1-16.6c0-9.5,6.8-16.5,16.1-16.5
			C359.3,96.9,366.1,103.8,366.1,113.4z M358.7,113.4c0-6.5-4.1-9.8-8.7-9.8c-4.5,0-8.7,3.3-8.7,9.8c0,6.5,4.2,9.9,8.7,9.9
			C354.6,123.3,358.7,119.9,358.7,113.4z"/>
		<path fill="#FFFFFF" d="M376.2,128.9c0.5,3.8,3.5,6.7,7.8,6.7c5.9,0,8.8-3,8.8-9.3V123c-1.3,2.4-4.5,4.5-9,4.5
			c-8.3,0-14.4-6.4-14.4-15.2c0-8.3,5.8-15.2,14.4-15.2c4.9,0,7.9,2,9.2,4.5v-4h7.2v28.2c0,8.3-4.3,16.1-16,16.1
			c-8.3,0-14-5.1-14.8-11.4L376.2,128.9z M393,112.4c0-5.3-3.4-8.8-8-8.8c-4.7,0-8.1,3.5-8.1,8.8c0,5.4,3.3,8.8,8.1,8.8
			C389.7,121.3,393,117.8,393,112.4z"/>
	</g>
</g>
<g id="Logo">
	<linearGradient id="SVGID_1_" gradientUnits="userSpaceOnUse" x1="106.4944" y1="143.9908" x2="106.4944" y2="73.8615">
		<stop  offset="0" style="stop-color:#FFFFFF;stop-opacity:0.5"/>
		<stop  offset="8.962709e-02" style="stop-color:#FFFFFF;stop-opacity:0.5448"/>
		<stop  offset="1" style="stop-color:#FFFFFF"/>
	</linearGradient>
	<path fill="url(#SVGID_1_)" d="M133.1,74.3c-2.8-1.2-6,0.2-7.2,3l-19.4,46.9L87.1,77.3c-1.2-2.8-4.4-4.1-7.2-3
		c-2.8,1.2-4.1,4.4-3,7.2l24.5,59.1c0,0,0,0,0,0c0.1,0.2,0.1,0.3,0.2,0.4c0,0.1,0.1,0.1,0.1,0.2c0,0.1,0.1,0.2,0.1,0.2
		c0.1,0.1,0.1,0.2,0.2,0.2c0.1,0.1,0.1,0.1,0.2,0.2c0.1,0.1,0.1,0.1,0.2,0.2c0.1,0.1,0.1,0.1,0.2,0.2c0.1,0.1,0.1,0.1,0.2,0.2
		c0.1,0.1,0.1,0.1,0.2,0.2c0.1,0.1,0.1,0.1,0.2,0.1c0.1,0.1,0.2,0.1,0.2,0.2c0.1,0.1,0.2,0.1,0.2,0.1c0.1,0,0.1,0.1,0.2,0.1
		c0.2,0.1,0.3,0.2,0.5,0.2c0,0,0,0,0,0c0,0,0,0,0,0c0.2,0.1,0.3,0.1,0.5,0.2c0.1,0,0.2,0,0.2,0.1c0.1,0,0.2,0,0.3,0.1
		c0.1,0,0.2,0,0.3,0c0.1,0,0.2,0,0.3,0c0.1,0,0.2,0,0.3,0c0.1,0,0.2,0,0.3,0c0.1,0,0.2,0,0.3,0c0.1,0,0.2,0,0.3,0c0.1,0,0.2,0,0.3,0
		c0.1,0,0.2,0,0.3,0c0.1,0,0.2,0,0.3-0.1c0.1,0,0.2,0,0.2-0.1c0.2-0.1,0.3-0.1,0.5-0.2c0,0,0,0,0,0c0,0,0,0,0,0
		c0.2-0.1,0.3-0.1,0.5-0.2c0.1,0,0.1-0.1,0.2-0.1c0.1,0,0.2-0.1,0.2-0.1c0.1-0.1,0.2-0.1,0.2-0.2c0.1-0.1,0.1-0.1,0.2-0.2
		c0.1-0.1,0.1-0.1,0.2-0.2c0.1-0.1,0.1-0.1,0.2-0.2c0.1-0.1,0.1-0.1,0.2-0.2c0.1-0.1,0.1-0.1,0.2-0.2c0.1-0.1,0.1-0.1,0.1-0.2
		c0.1-0.1,0.1-0.2,0.2-0.2c0.1-0.1,0.1-0.2,0.1-0.2c0-0.1,0.1-0.1,0.1-0.2c0.1-0.1,0.1-0.3,0.2-0.4c0,0,0,0,0,0l24.5-59.1
		C137.2,78.7,135.9,75.4,133.1,74.3z"/>
	<g>
		<linearGradient id="SVGID_2_" gradientUnits="userSpaceOnUse" x1="106.5" y1="143.9933" x2="106.5" y2="68.9933">
			<stop  offset="0" style="stop-color:#FFFFFF;stop-opacity:0.25"/>
			<stop  offset="8.962709e-02" style="stop-color:#FFFFFF;stop-opacity:0.3172"/>
			<stop  offset="1" style="stop-color:#FFFFFF"/>
		</linearGradient>
		<path fill="url(#SVGID_2_)" d="M112,110.8V74.5c0-3-2.5-5.5-5.5-5.5s-5.5,2.5-5.5,5.5v36.3l5.5,13.3L112,110.8z"/>
	</g>
	<path fill="#FFFFFF" d="M155.6,89.3c-2.1-2.1-5.6-2.1-7.8,0l-41.4,41.4L65.1,89.3c-2.1-2.1-5.6-2.1-7.8,0c-2.1,2.1-2.1,5.6,0,7.8
		l45.3,45.3c0.8,0.8,1.7,1.2,2.7,1.5c0,0,0.1,0,0.1,0c0.2,0,0.4,0,0.6,0.1c0.1,0,0.3,0,0.4,0c0.1,0,0.2,0,0.4,0
		c1.3-0.1,2.5-0.6,3.5-1.6l45.3-45.3C157.8,95,157.8,91.5,155.6,89.3z"/>
</g>
</svg>
