<?xml version="1.0" encoding="UTF-8" standalone="no"?>
<svg width="120px" height="120px" viewBox="0 0 120 120" version="1.1" xmlns="http://www.w3.org/2000/svg" xmlns:xlink="http://www.w3.org/1999/xlink" xmlns:sketch="http://www.bohemiancoding.com/sketch/ns">
    <!-- Generator: Sketch 3.3.3 (12081) - http://www.bohemiancoding.com/sketch -->
    <title>Rectangle 62 + download</title>
    <desc>Created with Sketch.</desc>
    <defs></defs>
    <g id="Resources" stroke="none" stroke-width="1" fill="none" fill-rule="evenodd" sketch:type="MSPage">
        <g id="IXT-Brand-–-Catalog-–-Resources" sketch:type="MSArtboardGroup" transform="translate(-310.000000, -502.000000)">
            <g id="Content" sketch:type="MSLayerGroup" transform="translate(251.000000, 0.000000)">
                <g id="Download-Color" transform="translate(59.000000, 501.000000)" sketch:type="MSShapeGroup">
                    <g id="Rectangle-62-+-download" transform="translate(0.000000, 1.000000)">
                        <rect id="Rectangle-62" fill="#EBEBEB" x="0" y="0" width="120" height="120" rx="2"></rect>
                        <g id="download" transform="translate(37.000000, 35.000000)" fill="#FFFFFF">
                            <path d="M35.6472,18.3528 C35.1792,17.8824 34.4208,17.8824 33.9504,18.3528 L24,28.3032 L24,1.2 C24,0.5376 23.4624,0 22.8,0 C22.1376,0 21.6,0.5376 21.6,1.2 L21.6,28.3032 L11.6496,18.3528 C11.1792,17.8824 10.4208,17.8824 9.9504,18.3528 C9.4824,18.8208 9.4824,19.5792 9.9504,20.0496 L21.9504,32.0496 C22.1856,32.2824 22.4928,32.4 22.8,32.4 C23.1072,32.4 23.4144,32.2824 23.6496,32.0472 L35.6496,20.0472 C36.1176,19.5792 36.1176,18.8208 35.6472,18.3528 L35.6472,18.3528 Z" id="Fill-1"></path>
                            <path d="M42,40.8 L3.6,40.8 C1.6152,40.8 0,39.1848 0,37.2 L0,32.4 C0,31.7376 0.5376,31.2 1.2,31.2 C1.8624,31.2 2.4,31.7376 2.4,32.4 L2.4,37.2 C2.4,37.8624 2.9376,38.4 3.6,38.4 L42,38.4 C42.6624,38.4 43.2,37.8624 43.2,37.2 L43.2,32.4 C43.2,31.7376 43.7376,31.2 44.4,31.2 C45.0624,31.2 45.6,31.7376 45.6,32.4 L45.6,37.2 C45.6,39.1848 43.9848,40.8 42,40.8 L42,40.8 Z" id="Fill-2"></path>
                        </g>
                    </g>
                </g>
            </g>
        </g>
    </g>
</svg>